<?xml version="1.0" encoding="UTF-8"?>
<svg width="752pt" height="752pt" version="1.1" viewBox="0 0 752 752" xmlns="http://www.w3.org/2000/svg">
 <path d="m526.12 225.88c-40.254-40.254-93.293-62.039-150.12-62.039-56.828 0-109.87 21.785-150.12 62.039s-62.039 93.297-62.039 150.12 22.258 109.87 62.039 150.12c40.254 40.258 93.297 62.039 150.12 62.039s109.87-22.258 150.12-62.039c40.258-40.254 62.039-93.293 62.039-150.12 0-56.828-21.781-109.87-62.039-150.12zm-11.84 288.41c-36.938 36.941-86.191 57.305-138.29 57.305s-101.34-20.363-138.29-57.305c-36.938-36.938-57.301-86.191-57.301-138.29s20.363-101.34 57.301-138.29c36.941-36.938 86.191-57.301 138.29-57.301s101.35 20.363 138.29 57.301c36.941 36.941 57.305 86.191 57.305 138.29s-20.363 101.35-57.305 138.29zm-138.29-158.65c26.047 0 46.883-21.312 46.883-46.883 0-26.047-21.312-46.883-46.883-46.883-26.047 0-46.883 21.312-46.883 46.883 0 25.574 20.836 46.883 46.883 46.883zm0-77.191c16.574 0 30.309 13.734 30.309 30.309 0 16.574-13.734 30.309-30.309 30.309s-30.309-13.734-30.309-30.309c0-16.578 13.734-30.309 30.309-30.309zm70.566 129.76c12.312 16.574 20.363 39.309 23.207 67.25l-16.574 1.8945c-6.6289-56.828-32.203-85.719-77.195-85.719-44.988 0-70.562 28.887-77.195 85.719l-16.574-1.8945c3.3164-27.941 10.891-50.672 23.207-67.25 16.574-22.258 40.254-33.152 70.562-33.152 30.309 0.003907 53.984 11.371 70.562 33.152z"/>
</svg>
